{
  "accessors": [
    {
      "bufferView": 2,
      "componentType": 5126,
      "count": 1165,
      "max": [
        11.748002052307129,
        7.023633003234863,
        19.393800735473633
      ],
      "min": [
        -12.02029800415039,
        -16.704538345336914,
        -31.662595748901367
      ],
      "type": "VEC3"
    },
    {
      "bufferView": 2,
      "byteOffset": 13980,
      "componentType": 5126,
      "count": 1165,
      "max": [
        0.9266482591629028,
        0.8801556825637817,
        0.7239632606506348
      ],
      "min": [
        -0.9075304269790649,
        -0.8939999938011169,
        -0.44804900884628296
      ],
      "type": "VEC3"
    },
    {
      "bufferView": 3,
      "componentType": 5126,
      "count": 1165,
      "max": [
        0.8958110809326172,
        0.998049259185791,
        0.6815354824066162,
        1.0
      ],
      "min": [
        -0.9999623894691467,
        -0.9992344975471497,
        -0.18473514914512634,
        1.0
      ],
      "type": "VEC4"
    },
    {
      "bufferView": 1,
      "componentType": 5126,
      "count": 1165,
      "max": [
        0.8410900235176086,
        0.8921800255775452
      ],
      "min": [
        0.08305999636650085,
        0.31652000546455383
      ],
      "type": "VEC2"
    },
    {
      "bufferView": 0,
      "componentType": 5125,
      "count": 5922,
      "type": "SCALAR"
    },
    {
      "bufferView": 2,
      "byteOffset": 27960,
      "componentType": 5126,
      "count": 4246,
      "max": [
        25.689002990722656,
        16.60421371459961,
        25.7984619140625
      ],
      "min": [
        -25.57522964477539,
        -16.631732940673828,
        -31.781787872314453
      ],
      "type": "VEC3"
    },
    {
      "bufferView": 2,
      "byteOffset": 78912,
      "componentType": 5126,
      "count": 4246,
      "max": [
        0.9999536275863647,
        0.9999995231628418,
        0.9999673366546631
      ],
      "min": [
        -0.9998828768730164,
        -0.9998903870582581,
        -0.9999467730522156
      ],
      "type": "VEC3"
    },
    {
      "bufferView": 3,
      "byteOffset": 18640,
      "componentType": 5126,
      "count": 4246,
      "max": [
        0.9999728798866272,
        0.9972163438796997,
        0.9982218742370605,
        1.0
      ],
      "min": [
        -0.9999420642852783,
        -0.9998413324356079,
        -0.9999976754188538,
        -1.0
      ],
      "type": "VEC4"
    },
    {
      "bufferView": 1,
      "byteOffset": 9320,
      "componentType": 5126,
      "count": 4246,
      "max": [
        0.9696099758148193,
        0.9447199702262878
      ],
      "min": [
        0.0033400000538676977,
        0.005630000028759241
      ],
      "type": "VEC2"
    },
    {
      "bufferView": 0,
      "byteOffset": 23688,
      "componentType": 5125,
      "count": 16398,
      "type": "SCALAR"
    },
    {
      "bufferView": 2,
      "byteOffset": 129864,
      "componentType": 5126,
      "count": 3419,
      "max": [
        25.45248794555664,
        16.62106704711914,
        19.40983009338379
      ],
      "min": [
        -25.574382781982422,
        -16.520174026489258,
        -31.825183868408203
      ],
      "type": "VEC3"
    },
    {
      "bufferView": 2,
      "byteOffset": 170892,
      "componentType": 5126,
      "count": 3419,
      "max": [
        0.9998622536659241,
        0.8950772881507874,
        0.9342041015625
      ],
      "min": [
        -0.9998622536659241,
        -0.9565574526786804,
        -0.46388381719589233
      ],
      "type": "VEC3"
    },
    {
      "bufferView": 3,
      "byteOffset": 86576,
      "componentType": 5126,
      "count": 3419,
      "max": [
        0.9988283514976501,
        0.9996276497840881,
        0.4902966320514679,
        1.0
      ],
      "min": [
        -0.9968699216842651,
        -0.9997763633728027,
        -0.9999830722808838,
        1.0
      ],
      "type": "VEC4"
    },
    {
      "bufferView": 1,
      "byteOffset": 43288,
      "componentType": 5126,
      "count": 3419,
      "max": [
        0.9700599908828735,
        0.8921800255775452
      ],
      "min": [
        0.0032599999103695154,
        0.1271200031042099
      ],
      "type": "VEC2"
    },
    {
      "bufferView": 0,
      "byteOffset": 89280,
      "componentType": 5125,
      "count": 17496,
      "type": "SCALAR"
    },
    {
      "bufferView": 2,
      "byteOffset": 211920,
      "componentType": 5126,
      "count": 5270,
      "max": [
        25.68035316467285,
        16.62106704711914,
        25.507286071777344
      ],
      "min": [
        -25.571239471435547,
        -16.704538345336914,
        -31.81057357788086
      ],
      "type": "VEC3"
    },
    {
      "bufferView": 2,
      "byteOffset": 275160,
      "componentType": 5126,
      "count": 5270,
      "max": [
        0.9998626708984375,
        0.9998896718025208,
        0.9999756217002869
      ],
      "min": [
        -0.9999425411224365,
        -0.9555382132530212,
        -0.999946653842926
      ],
      "type": "VEC3"
    },
    {
      "bufferView": 3,
      "byteOffset": 141280,
      "componentType": 5126,
      "count": 5270,
      "max": [
        0.9999974966049194,
        0.9998679757118225,
        0.9967791438102722,
        1.0
      ],
      "min": [
        -0.9991859197616577,
        -0.9993494749069214,
        -0.9999916553497314,
        1.0
      ],
      "type": "VEC4"
    },
    {
      "bufferView": 1,
      "byteOffset": 70640,
      "componentType": 5126,
      "count": 5270,
      "max": [
        0.9642900228500366,
        0.9343100190162659
      ],
      "min": [
        0.008270000107586384,
        0.0022799998987466097
      ],
      "type": "VEC2"
    },
    {
      "bufferView": 0,
      "byteOffset": 159264,
      "componentType": 5125,
      "count": 25944,
      "type": "SCALAR"
    },
    {
      "bufferView": 2,
      "byteOffset": 338400,
      "componentType": 5126,
      "count": 7258,
      "max": [
        25.6861572265625,
        16.609539031982422,
        25.79834747314453
      ],
      "min": [
        -25.57522964477539,
        -16.681873321533203,
        -31.825183868408203
      ],
      "type": "VEC3"
    },
    {
      "bufferView": 2,
      "byteOffset": 425496,
      "componentType": 5126,
      "count": 7258,
      "max": [
        0.9999291300773621,
        0.999987781047821,
        0.9999974966049194
      ],
      "min": [
        -0.9999971389770508,
        -0.9998899102210999,
        -0.9999467730522156
      ],
      "type": "VEC3"
    },
    {
      "bufferView": 3,
      "byteOffset": 225600,
      "componentType": 5126,
      "count": 7258,
      "max": [
        0.9999974966049194,
        0.9993002414703369,
        0.9835978150367737,
        1.0
      ],
      "min": [
        -0.9999985694885254,
        -0.9999953508377075,
        -0.999997079372406,
        -1.0
      ],
      "type": "VEC4"
    },
    {
      "bufferView": 1,
      "byteOffset": 112800,
      "componentType": 5126,
      "count": 7258,
      "max": [
        0.9697800278663635,
        0.9426800012588501
      ],
      "min": [
        0.0035600000992417336,
        0.007720000110566616
      ],
      "type": "VEC2"
    },
    {
      "bufferView": 0,
      "byteOffset": 263040,
      "componentType": 5125,
      "count": 30336,
      "type": "SCALAR"
    },
    {
      "bufferView": 2,
      "byteOffset": 512592,
      "componentType": 5126,
      "count": 7230,
      "max": [
        25.68992042541504,
        16.62106704711914,
        25.782474517822266
      ],
      "min": [
        -25.574382781982422,
        -16.704538345336914,
        -31.825183868408203
      ],
      "type": "VEC3"
    },
    {
      "bufferView": 2,
      "byteOffset": 599352,
      "componentType": 5126,
      "count": 7230,
      "max": [
        0.9999048709869385,
        0.9999850988388062,
        0.9999480247497559
      ],
      "min": [
        -0.999862790107727,
        -0.9998896718025208,
        -0.9999477863311768
      ],
      "type": "VEC3"
    },
    {
      "bufferView": 3,
      "byteOffset": 341728,
      "componentType": 5126,
      "count": 7230,
      "max": [
        0.9999973773956299,
        0.999881386756897,
        0.9985887408256531,
        1.0
      ],
      "min": [
        -0.9999973773956299,
        -0.9999392628669739,
        -0.999997079372406,
        1.0
      ],
      "type": "VEC4"
    },
    {
      "bufferView": 1,
      "byteOffset": 170864,
      "componentType": 5126,
      "count": 7230,
      "max": [
        0.960669994354248,
        0.9447199702262878
      ],
      "min": [
        0.005109999794512987,
        0.0019499999471008778
      ],
      "type": "VEC2"
    },
    {
      "bufferView": 0,
      "byteOffset": 384384,
      "componentType": 5125,
      "count": 34392,
      "type": "SCALAR"
    },
    {
      "bufferView": 2,
      "byteOffset": 686112,
      "componentType": 5126,
      "count": 10609,
      "max": [
        25.68992042541504,
        16.62106704711914,
        25.969371795654297
      ],
      "min": [
        -25.57522964477539,
        -16.704538345336914,
        -31.817989349365234
      ],
      "type": "VEC3"
    },
    {
      "bufferView": 2,
      "byteOffset": 813420,
      "componentType": 5126,
      "count": 10609,
      "max": [
        0.9999929070472717,
        0.999984860420227,
        0.9999831318855286
      ],
      "min": [
        -0.9999969005584717,
        -0.9999845027923584,
        -0.9999603629112244
      ],
      "type": "VEC3"
    },
    {
      "bufferView": 3,
      "byteOffset": 457408,
      "componentType": 5126,
      "count": 10609,
      "max": [
        0.9999971389770508,
        0.9999954104423523,
        0.9968754053115845,
        1.0
      ],
      "min": [
        -1.0,
        -0.9999812841415405,
        -0.999997615814209,
        -1.0
      ],
      "type": "VEC4"
    },
    {
      "bufferView": 1,
      "byteOffset": 228704,
      "componentType": 5126,
      "count": 10609,
      "max": [
        0.9691799879074097,
        0.9437199831008911
      ],
      "min": [
        0.0022100000642240047,
        0.002099999925121665
      ],
      "type": "VEC2"
    },
    {
      "bufferView": 0,
      "byteOffset": 521952,
      "componentType": 5125,
      "count": 41628,
      "type": "SCALAR"
    },
    {
      "bufferView": 2,
      "byteOffset": 940728,
      "componentType": 5126,
      "count": 41075,
      "max": [
        25.68992042541504,
        16.615299224853516,
        45.206050872802734
      ],
      "min": [
        -25.57522964477539,
        -16.69297981262207,
        -31.825183868408203
      ],
      "type": "VEC3"
    },
    {
      "bufferView": 2,
      "byteOffset": 1433628,
      "componentType": 5126,
      "count": 41075,
      "max": [
        0.9999972581863403,
        0.9999980926513672,
        0.9999998807907104
      ],
      "min": [
        -0.9999972581863403,
        -0.9999980926513672,
        -0.9999468922615051
      ],
      "type": "VEC3"
    },
    {
      "bufferView": 3,
      "byteOffset": 627152,
      "componentType": 5126,
      "count": 41075,
      "max": [
        0.9999969601631165,
        0.999981164932251,
        0.9967449307441711,
        1.0
      ],
      "min": [
        -0.9999975562095642,
        -0.9999949336051941,
        -0.9999976754188538,
        -1.0
      ],
      "type": "VEC4"
    },
    {
      "bufferView": 1,
      "byteOffset": 313576,
      "componentType": 5126,
      "count": 41075,
      "max": [
        0.9980400204658508,
        0.9890599846839905
      ],
      "min": [
        0.0019499999471008778,
        0.0019499999471008778
      ],
      "type": "VEC2"
    },
    {
      "bufferView": 0,
      "byteOffset": 688464,
      "componentType": 5125,
      "count": 210918,
      "type": "SCALAR"
    }
  ],
  "asset": {
    "extras": {
      "author": "Virtual Museums of Małopolska (https://sketchfab.com/WirtualneMuzeaMalopolski)",
      "license": "CC0-1.0 (http://creativecommons.org/publicdomain/zero/1.0/)",
      "source": "https://sketchfab.com/3d-models/modernist-perfume-bottle-2823ee6696844645a7e3b588494963ed",
      "title": "Modernist perfume bottle"
    },
    "generator": "Sketchfab-12.68.0",
    "version": "2.0"
  },
  "bufferViews": [
    {
      "buffer": 0,
      "byteLength": 1532136,
      "name": "floatBufferViews",
      "target": 34963
    },
    {
      "buffer": 0,
      "byteLength": 642176,
      "byteOffset": 1532136,
      "byteStride": 8,
      "name": "floatBufferViews",
      "target": 34962
    },
    {
      "buffer": 0,
      "byteLength": 1926528,
      "byteOffset": 2174312,
      "byteStride": 12,
      "name": "floatBufferViews",
      "target": 34962
    },
    {
      "buffer": 0,
      "byteLength": 1284352,
      "byteOffset": 4100840,
      "byteStride": 16,
      "name": "floatBufferViews",
      "target": 34962
    }
  ],
  "buffers": [
    {
      "byteLength": 5385192,
      "uri": "scene.bin"
    }
  ],
  "extensionsUsed": [
    "KHR_materials_clearcoat"
  ],
  "images": [
    {
      "uri": "textures/defaultMat_002_baseColor.png"
    },
    {
      "uri": "textures/defaultMat_002_normal.png"
    }
  ],
  "materials": [
    {
      "doubleSided": true,
      "extensions": {
        "KHR_materials_clearcoat": {
          "clearcoatFactor": 0.6053734756097561,
          "clearcoatRoughnessFactor": 0.13586128048780488
        }
      },
      "name": "defaultMat_002",
      "normalTexture": {
        "index": 1
      },
      "pbrMetallicRoughness": {
        "baseColorTexture": {
          "index": 0
        },
        "metallicFactor": 0.0,
        "roughnessFactor": 0.21779725609756095
      }
    }
  ],
  "meshes": [
    {
      "name": "Object_0",
      "primitives": [
        {
          "attributes": {
            "NORMAL": 1,
            "POSITION": 0,
            "TANGENT": 2,
            "TEXCOORD_0": 3
          },
          "indices": 4,
          "material": 0,
          "mode": 4
        }
      ]
    },
    {
      "name": "Object_1",
      "primitives": [
        {
          "attributes": {
            "NORMAL": 6,
            "POSITION": 5,
            "TANGENT": 7,
            "TEXCOORD_0": 8
          },
          "indices": 9,
          "material": 0,
          "mode": 4
        }
      ]
    },
    {
      "name": "Object_2",
      "primitives": [
        {
          "attributes": {
            "NORMAL": 11,
            "POSITION": 10,
            "TANGENT": 12,
            "TEXCOORD_0": 13
          },
          "indices": 14,
          "material": 0,
          "mode": 4
        }
      ]
    },
    {
      "name": "Object_3",
      "primitives": [
        {
          "attributes": {
            "NORMAL": 16,
            "POSITION": 15,
            "TANGENT": 17,
            "TEXCOORD_0": 18
          },
          "indices": 19,
          "material": 0,
          "mode": 4
        }
      ]
    },
    {
      "name": "Object_4",
      "primitives": [
        {
          "attributes": {
            "NORMAL": 21,
            "POSITION": 20,
            "TANGENT": 22,
            "TEXCOORD_0": 23
          },
          "indices": 24,
          "material": 0,
          "mode": 4
        }
      ]
    },
    {
      "name": "Object_5",
      "primitives": [
        {
          "attributes": {
            "NORMAL": 26,
            "POSITION": 25,
            "TANGENT": 27,
            "TEXCOORD_0": 28
          },
          "indices": 29,
          "material": 0,
          "mode": 4
        }
      ]
    },
    {
      "name": "Object_6",
      "primitives": [
        {
          "attributes": {
            "NORMAL": 31,
            "POSITION": 30,
            "TANGENT": 32,
            "TEXCOORD_0": 33
          },
          "indices": 34,
          "material": 0,
          "mode": 4
        }
      ]
    },
    {
      "name": "Object_7",
      "primitives": [
        {
          "attributes": {
            "NORMAL": 36,
            "POSITION": 35,
            "TANGENT": 37,
            "TEXCOORD_0": 38
          },
          "indices": 39,
          "material": 0,
          "mode": 4
        }
      ]
    }
  ],
  "nodes": [
    {
      "children": [
        1
      ],
      "matrix": [
        1.0,
        0.0,
        0.0,
        0.0,
        0.0,
        2.220446049250313e-16,
        -1.0,
        0.0,
        0.0,
        1.0,
        2.220446049250313e-16,
        0.0,
        0.0,
        0.0,
        0.0,
        1.0
      ],
      "name": "Sketchfab_model"
    },
    {
      "children": [
        2,
        3,
        4,
        5,
        6,
        7,
        8,
        9
      ],
      "name": "noweUV_05Sketchfab1_2_smooth0.obj.cleaner.materialmerger.gles"
    },
    {
      "mesh": 0,
      "name": "Object_2"
    },
    {
      "mesh": 1,
      "name": "Object_3"
    },
    {
      "mesh": 2,
      "name": "Object_4"
    },
    {
      "mesh": 3,
      "name": "Object_5"
    },
    {
      "mesh": 4,
      "name": "Object_6"
    },
    {
      "mesh": 5,
      "name": "Object_7"
    },
    {
      "mesh": 6,
      "name": "Object_8"
    },
    {
      "mesh": 7,
      "name": "Object_9"
    }
  ],
  "samplers": [
    {
      "magFilter": 9729,
      "minFilter": 9987,
      "wrapS": 10497,
      "wrapT": 10497
    }
  ],
  "scene": 0,
  "scenes": [
    {
      "name": "Sketchfab_Scene",
      "nodes": [
        0
      ]
    }
  ],
  "textures": [
    {
      "sampler": 0,
      "source": 0
    },
    {
      "sampler": 0,
      "source": 1
    }
  ]
}
