{
  "accessors": [
    {
      "bufferView": 2,
      "componentType": 5126,
      "count": 65532,
      "max": [
        -130.6830291748047,
        -640.0339965820313,
        102.66596984863281
      ],
      "min": [
        -227.27301025390625,
        -781.2329711914063,
        -81.235595703125
      ],
      "type": "VEC3"
    },
    {
      "bufferView": 2,
      "byteOffset": 786384,
      "componentType": 5126,
      "count": 65532,
      "max": [
        0.9999992251396179,
        0.9999142289161682,
        0.9999858736991882
      ],
      "min": [
        -0.9999942183494568,
        -0.9999749064445496,
        -0.9998317360877991
      ],
      "type": "VEC3"
    },
    {
      "bufferView": 1,
      "componentType": 5126,
      "count": 65532,
      "max": [
        0.9918019771575928,
        0.9914209842681885
      ],
      "min": [
        0.008716999553143978,
        0.006748999934643507
      ],
      "type": "VEC2"
    },
    {
      "bufferView": 0,
      "componentType": 5125,
      "count": 369354,
      "type": "SCALAR"
    },
    {
      "bufferView": 2,
      "byteOffset": 1572768,
      "componentType": 5126,
      "count": 12311,
      "max": [
        -142.468994140625,
        -640.6570434570313,
        103.11102294921875
      ],
      "min": [
        -224.77700805664063,
        -766.885986328125,
        -80.6263198852539
      ],
      "type": "VEC3"
    },
    {
      "bufferView": 2,
      "byteOffset": 1720500,
      "componentType": 5126,
      "count": 12311,
      "max": [
        0.9999571442604065,
        0.9989267587661743,
        0.9995198845863342
      ],
      "min": [
        -0.9999194741249084,
        -0.9999167323112488,
        -0.9997286200523376
      ],
      "type": "VEC3"
    },
    {
      "bufferView": 1,
      "byteOffset": 524256,
      "componentType": 5126,
      "count": 12311,
      "max": [
        0.9865570068359375,
        0.9938790202140808
      ],
      "min": [
        0.00864300038665533,
        0.05104900151491165
      ],
      "type": "VEC2"
    },
    {
      "bufferView": 0,
      "byteOffset": 1477416,
      "componentType": 5125,
      "count": 45948,
      "type": "SCALAR"
    }
  ],
  "asset": {
    "extras": {
      "author": "Virtual Museums of Małopolska (https://sketchfab.com/WirtualneMuzeaMalopolski)",
      "license": "CC0-1.0 (http://creativecommons.org/publicdomain/zero/1.0/)",
      "source": "https://sketchfab.com/3d-models/perfume-bottle-772053d28e6e403e995fa8549d2650c2",
      "title": "Perfume bottle"
    },
    "generator": "Sketchfab-12.68.0",
    "version": "2.0"
  },
  "bufferViews": [
    {
      "buffer": 0,
      "byteLength": 1661208,
      "name": "floatBufferViews",
      "target": 34963
    },
    {
      "buffer": 0,
      "byteLength": 622744,
      "byteOffset": 1661208,
      "byteStride": 8,
      "name": "floatBufferViews",
      "target": 34962
    },
    {
      "buffer": 0,
      "byteLength": 1868232,
      "byteOffset": 2283952,
      "byteStride": 12,
      "name": "floatBufferViews",
      "target": 34962
    }
  ],
  "buffers": [
    {
      "byteLength": 4152184,
      "uri": "scene.bin"
    }
  ],
  "images": [
    {
      "uri": "textures/8_ps_uv_baseColor.jpeg"
    },
    {
      "uri": "textures/8_ps_uv_metallicRoughness.png"
    }
  ],
  "materials": [
    {
      "doubleSided": true,
      "name": "8_ps_uv",
      "occlusionTexture": {
        "index": 1
      },
      "pbrMetallicRoughness": {
        "baseColorTexture": {
          "index": 0
        },
        "metallicRoughnessTexture": {
          "index": 1
        },
        "roughnessFactor": 0.5992759146341463
      }
    }
  ],
  "meshes": [
    {
      "name": "Object_0",
      "primitives": [
        {
          "attributes": {
            "NORMAL": 1,
            "POSITION": 0,
            "TEXCOORD_0": 2
          },
          "indices": 3,
          "material": 0,
          "mode": 4
        }
      ]
    },
    {
      "name": "Object_1",
      "primitives": [
        {
          "attributes": {
            "NORMAL": 5,
            "POSITION": 4,
            "TEXCOORD_0": 6
          },
          "indices": 7,
          "material": 0,
          "mode": 4
        }
      ]
    }
  ],
  "nodes": [
    {
      "children": [
        1
      ],
      "matrix": [
        -0.0007952378229862042,
        -2.094187841615835e-06,
        1.7335483058067323e-19,
        0.0,
        -1.6154469648026166e-06,
        0.0006134428219602383,
        -0.0005060562012792895,
        0.0,
        1.3326493023245467e-06,
        -0.0005060544474781123,
        -0.0006134449549616701,
        0.0,
        -359.4173583984375,
        565.6040649414061,
        266.85479736328136,
        1.0
      ],
      "name": "Sketchfab_model"
    },
    {
      "children": [
        2,
        3
      ],
      "name": "8_ps_uv.obj.cleaner.materialmerger.gles"
    },
    {
      "mesh": 0,
      "name": "Object_2"
    },
    {
      "mesh": 1,
      "name": "Object_3"
    }
  ],
  "samplers": [
    {
      "magFilter": 9729,
      "minFilter": 9987,
      "wrapS": 10497,
      "wrapT": 10497
    }
  ],
  "scene": 0,
  "scenes": [
    {
      "name": "Sketchfab_Scene",
      "nodes": [
        0
      ]
    }
  ],
  "textures": [
    {
      "sampler": 0,
      "source": 0
    },
    {
      "sampler": 0,
      "source": 1
    }
  ]
}
